<?xml version="1.0" encoding="UTF-8" standalone="no"?>
<svg width="50px" height="50px" viewBox="0 0 50 50" version="1.1" xmlns="http://www.w3.org/2000/svg" xmlns:xlink="http://www.w3.org/1999/xlink">
    <!-- Generator: Sketch 3.8.1 (29687) - http://www.bohemiancoding.com/sketch -->
    <title>particle3</title>
    <desc>Created with Sketch.</desc>
    <defs></defs>
    <g id="Page-1" stroke="none" stroke-width="1" fill="none" fill-rule="evenodd">
        <g id="particle3" fill="#567173">
            <path d="M19.0000979,28.5806452 C19.0559706,29.7436567 18.949001,30.1182568 19.3871947,30.9032258 C19.8360524,31.7072982 20.4327587,32.9746771 21.7097753,33.2258065 C22.0634809,33.2953638 24.0461481,34 24.4194527,34 C25.3707388,34 26.8639125,33.655216 27.5162272,33.2258065 C28.5511377,32.5445395 29.320136,31.4986582 29.8388079,30.1290323 C30.0952834,29.4517726 30.2259043,28.7711705 30.2259043,28 C30.2259043,27.2493212 30.4605163,26.0752805 30.2259043,25.483871 C29.7325915,24.2403286 28.4009869,23.8351024 27.1291302,23.1612903 C26.3357711,22.7409797 25.3722874,22 24.4194527,22 C23.2170303,22 22.6770072,22.6436691 22.096872,23.1612903 C21.4997087,23.6941048 20.4884782,23.7278139 20.1613882,24.7096774 C19.9587795,25.3178716 19.3871947,26.2400258 19.3871947,27.0322581 C19.3871947,27.2079005 18.99288,28.430401 19.0000979,28.5806452 Z" id="Oval-3-Copy"></path>
        </g>
    </g>
</svg>