<?xml version="1.0" encoding="utf-8"?>
<!-- Generator: Adobe Illustrator 14.0.0, SVG Export Plug-In . SVG Version: 6.00 Build 43363)  -->
<!DOCTYPE svg PUBLIC "-//W3C//DTD SVG 1.1//EN" "http://www.w3.org/Graphics/SVG/1.1/DTD/svg11.dtd">
<svg version="1.1" id="Layer_1" xmlns="http://www.w3.org/2000/svg" xmlns:xlink="http://www.w3.org/1999/xlink" x="0px" y="0px"
	 width="512px" height="512px" viewBox="0 0 512 512" enable-background="new 0 0 512 512" xml:space="preserve">
<path d="M256.043,2.885C116.291,2.885,3,116.176,3,255.928C3,395.68,116.291,508.971,256.043,508.971
	S509.086,395.68,509.086,255.928C509.086,116.176,395.795,2.885,256.043,2.885z M353.348,259.333h-32.029
	c-1.74,0-3.152-1.418-3.152-3.167c0-0.114,0.021-0.222,0.033-0.333h-0.041c-0.18-33.903-27.713-61.333-61.658-61.333
	c-34.057,0-61.667,27.609-61.667,61.667c0,33.596,26.873,60.89,60.292,61.625c0.309-0.074,0.627-0.125,0.958-0.125
	c2.255,0,4.083,1.828,4.083,4.083v30.668c0,2.255-1.828,4.083-4.083,4.083c-0.085,0-0.166-0.021-0.25-0.025v0.021
	c-55.259-0.181-100-45.028-100-100.329c0-55.413,44.921-100.333,100.333-100.333c55.301,0,100.148,44.741,100.329,100h-0.029
	c0.012,0.111,0.033,0.219,0.033,0.333C356.5,257.915,355.088,259.333,353.348,259.333z M429.167,256.333
	c0,2.025-1.636,3.667-3.654,3.667h-38.69c-2.019,0-3.654-1.642-3.654-3.667c0-0.171,0.027-0.334,0.05-0.5h-0.051
	c0-70.324-57.009-127.333-127.333-127.333c-70.325,0-127.334,57.009-127.334,127.333c0,70.325,57.009,127.333,127.334,127.333
	c0.071,0,0.142-0.002,0.213-0.003c0.131-0.011,0.256-0.039,0.39-0.039c0.104,0,0.202,0.024,0.305,0.03
	c0.141-0.002,0.282-0.004,0.424-0.005v0.048c2.24,0.353,3.959,2.275,3.959,4.614v36.625c0,2.339-1.719,4.262-3.959,4.614v0.094
	c-0.556,0.006-1.109,0.021-1.666,0.021c-95.913,0-173.667-77.753-173.667-173.667c0-95.913,77.753-173.667,173.667-173.667
	c95.914,0,173.667,77.753,173.667,173.667c0,0.111-0.004,0.222-0.004,0.333h-0.046C429.14,255.999,429.167,256.162,429.167,256.333z
	"/>
</svg>
