<?xml version="1.0" standalone="no"?><!DOCTYPE svg PUBLIC "-//W3C//DTD SVG 1.1//EN" "http://www.w3.org/Graphics/SVG/1.1/DTD/svg11.dtd"><svg class="icon" height="512" viewBox="0 0 1024 1024" version="1.1" xmlns="http://www.w3.org/2000/svg"><path d="M760.661333 92.145778l59.847111 330.040889-71.338667 14.577778L689.322667 106.709333 760.661333 92.145778zM535.367111 160.881778l194.005333 273.621333-58.453333 43.420444L476.913778 204.302222 535.367111 160.881778zM362.225778 317.767111l292.309333 164.508444-34.304 64.227556L327.921778 381.994667 362.225778 317.767111zM278.115556 483.399111l330.979556 83.427556-17.379556 68.963556-330.979556-83.427556L278.115556 483.399111zM257.550222 635.633778 597.333333 668.216889l-6.798222 70.784-339.768889-32.583111L257.550222 635.633778zM256 768l341.333333 0 0 71.111111L256 839.111111 256 768zM640 611.555556 640 896 213.333333 896 213.333333 611.555556 156.444444 611.555556 156.444444 952.888889 696.888889 952.888889 696.888889 611.555556Z" /></svg>